<?xml version="1.0" encoding="iso-8859-1"?>
<!-- Generator: Adobe Illustrator 19.0.0, SVG Export Plug-In . SVG Version: 6.00 Build 0)  -->
<!-- License: CC0. Made by SVG Repo: https://www.svgrepo.com/svg/138790/doctor -->
<svg version="1.1" id="Layer_1" xmlns="http://www.w3.org/2000/svg" xmlns:xlink="http://www.w3.org/1999/xlink" x="0px" y="0px"
     viewBox="0 0 460 460" style="enable-background:new 0 0 460 460;" xml:space="preserve">
<g id="XMLID_3344_">
	<path id="XMLID_1015_" style="fill:#C0AB91;" d="M391.193,254.533c0,0-21.11-9.616-32.731-10.567v-29.108
		c22.393-9.648,37.851-31.853,37.851-57.714v-10.477h0.006L396.529,20c0-11.046-8.954-20-20-20h-86.135c-11.046,0-20,8.954-20,20
		v63.81l0,0v62.857l0,0v10.477c0,25.861,15.675,48.065,38.067,57.714v29.108c-10.959,2.185-21.411,5.769-31.154,10.567l0.131,0.13
		c-19.013,9.418-35.309,23.454-47.438,40.625c-12.129-17.171-28.294-31.337-47.307-40.755c0,0-6.817-3.289-14.946-6.189
		c-5.974-2.131-12.867-3.761-17.746-4.671v-28.815c22.393-9.649,37.857-31.853,37.857-57.714v-10.477l0,0L188.067,20
		c0-11.046-8.954-20-20-20H81.933c-11.046,0-20,8.954-20,20v63.81l0,0v62.857l0,0v10.477c0,25.861,15.675,48.065,38.067,57.714
		v29.425c-10.399,2.208-20.329,5.677-29.616,10.25l0.131,0.131C28.726,275.364,0,318.333,0,368v57.5
		C0,444.554,15.498,460,34.615,460h91.923h80.385h126.538h91.923C444.502,460,460,444.554,460,425.5V368
		C460,318.333,432.982,275.233,391.193,254.533z"/>
    <path id="XMLID_2809_" style="fill:#AA8D6F;" d="M182.693,310.5h-56.154l-0.122-69l0,0c-9.06,0-17.895,0.955-26.417,2.756v-37.923
		c7.667,3.303,16.116,5.143,25,5.143s17.333-1.84,25-5.143v37.339c11.519,2.148,22.495,5.837,32.693,10.86V310.5z"/>
    <path id="XMLID_1025_" style="fill:#AA8D6F;" d="M392.75,312L335,310.462l-0.122-69l0,0c-9.06,0-17.895,0.703-26.417,2.504v-40.204
		c7.667,3.303,16.116,5.143,25,5.143s17.333-1.84,25-5.143v39.872c11.519,2.148,22.495,5.837,32.693,10.86L392.75,312z"/>
    <path id="XMLID_2806_" style="fill:#9AC1BE;" d="M208.462,368v92h-80.385H36.154c-19.118,0-34.615-15.446-34.615-34.5V368
		c0-49.768,28.841-92.815,70.769-113.467l55.77,55.584l54.616-55.584c19.123,9.419,36.662,23.507,48.846,40.756
		C217.008,315.859,208.462,340.93,208.462,368z"/>
    <path id="XMLID_2808_" style="fill:#B6DBD7;" d="M86.538,350h-20c-2.761,0-5-2.239-5-5v-10c0-2.761,2.239-5,5-5h20
		c2.761,0,5,2.239,5,5v10C91.538,347.761,89.3,350,86.538,350z"/>
    <path id="XMLID_1031_" style="fill:#8BAFAC;" d="M460,368v57.5c0,19.054-15.498,34.5-34.615,34.5h-91.923H207.466h-0.543h-22.38
		v-92c0-33.563,13.377-64.592,34.778-87.234c4.116,4.249,7.985,8.58,11.407,13.391c1.005-1.428,1.492-1.917,1.87-2.416
		c11.874-15.636,27.166-28.567,44.96-37.332L335,310.117l56.192-55.584C433.121,275.185,460,318.232,460,368z"/>
    <path id="XMLID_1023_" style="fill:#ADDFBA;" d="M460,368v57.5c0,19.054-15.498,34.5-34.615,34.5h-91.923H206.923v-92
		c0-25.062,7.084-48.599,19.702-68.25c1.011-1.574,4.965-6.95,5.851-8.116c11.874-15.635,27.443-28.535,45.237-37.3L335,310.117
		l56.192-55.584C433.121,275.185,460,318.232,460,368z"/>
    <path id="XMLID_2787_" style="fill:#C3E5CB;" d="M293.462,350h-20c-2.761,0-5-2.239-5-5v-10c0-2.761,2.239-5,5-5h20
		c2.761,0,5,2.239,5,5v10C298.462,347.761,296.223,350,293.462,350z"/>
    <path id="XMLID_2453_" style="fill:#C3E5CB;" d="M396.135,146.667v10.477c0,34.715-28.236,62.857-63.067,62.857
		S270,191.858,270,157.143v-10.477h126.135V146.667z"/>
    <path id="XMLID_1807_" style="fill:#ADDFBA;" d="M396.135,146.667v10.477c0,34.715-28.236,62.857-63.067,62.857
		c-3.492,0-6.913-0.295-10.25-0.839c29.954-4.882,52.817-30.783,52.817-62.018v-10.477L396.135,146.667L396.135,146.667z"/>
    <path id="XMLID_1423_" style="fill:#ADDFBA;" d="M396.443,80H270.408V20c0-11.046,8.954-20,20-20h86.135c11.046,0,20,8.954,20,20
		L396.443,80z"/>
    <path id="XMLID_1265_" style="fill:#C3E5CB;" d="M288.467,80h-18.059V20c0-10.391,7.925-18.925,18.059-19.902V80z"/>
    <path id="XMLID_1245_" style="fill:#B6DBD7;" d="M188.076,146.667v10.477c0,34.715-28.236,62.857-63.067,62.857
		s-63.067-28.142-63.067-62.857v-10.477H188.076z"/>
    <path id="XMLID_1249_" style="fill:#9AC1BE;" d="M188.076,146.667v10.477c0,34.715-28.236,62.857-63.067,62.857
		c-3.492,0-6.913-0.295-10.25-0.839c29.954-4.882,52.817-30.783,52.817-62.018v-10.477L188.076,146.667L188.076,146.667z"/>
    <path id="XMLID_1158_" style="fill:#9AC1BE;" d="M187.976,80H61.941V20c0-11.046,8.954-20,20-20h86.135c11.046,0,20,8.954,20,20
		L187.976,80z"/>
    <path id="XMLID_1066_" style="fill:#B6DBD7;" d="M80,80H61.941V20C61.941,9.609,69.866,1.075,80,0.098V80z"/>
</g>
</svg>
