<?xml version="1.0" encoding="iso-8859-1"?>
<!-- Generator: Adobe Illustrator 19.0.0, SVG Export Plug-In . SVG Version: 6.00 Build 0)  -->
<!-- License: CC0. Made by SVG Repo: https://www.svgrepo.com/svg/163586/list -->
<svg version="1.1" id="Layer_1" xmlns="http://www.w3.org/2000/svg" xmlns:xlink="http://www.w3.org/1999/xlink" x="0px" y="0px"
	 viewBox="0 0 297 297" style="enable-background:new 0 0 297 297;" xml:space="preserve">
<g>
	<g>
		<circle style="fill:#D95459;" cx="148.5" cy="148.5" r="148.5"/>
	</g>
	<g>
		<path style="fill:#C14851;" d="M295.122,172.118l-74.53-74.53L75.5,245.833l48.824,49.197c7.869,1.289,15.942,1.97,24.176,1.97
			C222.475,297,283.808,242.906,295.122,172.118z"/>
	</g>
	<g>
		<g>
			<polygon style="fill:#FFFFFF;" points="174.226,51.167 75.5,51.167 75.5,245.833 221.5,245.833 221.5,98.44 			"/>
		</g>
		<g>
			<polygon style="fill:#D0D5D9;" points="174.226,98.44 221.5,98.44 174.226,51.167 			"/>
		</g>
		<g>
			<rect x="87.389" y="99.833" style="fill:#FFCD02;" width="16.222" height="16.222"/>
		</g>
		<g>
			<rect x="120.726" y="109.173" style="fill:#F4AF30;" width="76.441" height="6.882"/>
		</g>
		<g>
			<rect x="120.726" y="174.062" style="fill:#F4AF30;" width="76.441" height="6.882"/>
		</g>
		<g>
			<rect x="120.726" y="206.507" style="fill:#F4AF30;" width="76.441" height="6.882"/>
		</g>
		<g>
			<rect x="120.726" y="141.618" style="fill:#F4AF30;" width="76.441" height="6.882"/>
		</g>
		<g>
			<rect x="87.389" y="132.278" style="fill:#FFCD02;" width="16.222" height="16.222"/>
		</g>
		<g>
			<rect x="87.389" y="164.722" style="fill:#FFCD02;" width="16.222" height="16.222"/>
		</g>
		<g>
			<rect x="87.389" y="197.167" style="fill:#FFCD02;" width="16.222" height="16.222"/>
		</g>
	</g>
</g>
</svg>
