<?xml version="1.0" encoding="iso-8859-1"?>
<!-- Generator: Adobe Illustrator 19.1.0, SVG Export Plug-In . SVG Version: 6.00 Build 0)  -->
<!-- License: CC0. Made by SVG Repo: https://www.svgrepo.com/svg/103550/list -->
<svg version="1.1" id="Capa_1" xmlns="http://www.w3.org/2000/svg" xmlns:xlink="http://www.w3.org/1999/xlink" x="0px" y="0px"
	 viewBox="0 0 297 297" style="enable-background:new 0 0 297 297;" xml:space="preserve">
<g>
	<path style="fill:none;" d="M149.333,16c-10.456,0-19.242,7.259-21.601,17h43.201C168.575,23.259,159.789,16,149.333,16z"/>
	<path style="fill:#FFFFFF;" d="M211,49h-5.586c-3.811,17.524-19.236,30-37.892,30h-36.379c-18.655,0-34.081-12.476-37.892-30H87
		v202h124V49z M149,220H99v-15h50V220z M149,172H99v-15h50V172z M149,124H99v-15h50V124z M176.907,226.944l-17.145-13.969
		l9.475-11.629l6.189,5.043l14.219-15.466l11.043,10.152L176.907,226.944z M176.907,178.944l-17.145-13.969l9.475-11.629
		l6.189,5.043l14.219-15.466l11.043,10.152L176.907,178.944z M176.907,130.944l-17.145-13.969l9.475-11.629l6.189,5.043
		l14.219-15.466l11.043,10.152L176.907,130.944z"/>
	<path style="fill:#FF8200;" d="M237.333,49H227v218H71V49H60.333C59.23,49,58,49.897,58,51v228c0,1.103,1.23,2,2.333,2h177
		c1.103,0,1.667-0.897,1.667-2V51C239,49.897,238.436,49,237.333,49z"/>
	<path d="M237.333,33h-10h-40.14c-2.558-18.613-18.556-33-37.86-33s-35.303,14.387-37.86,33h-40.14h-11C50.408,33,42,41.075,42,51
		v228c0,9.925,8.408,18,18.333,18h177c9.925,0,17.667-8.075,17.667-18V51C255,41.075,247.258,33,237.333,33z M188.591,49
		c-3.417,9-11.524,14-21.068,14h-36.379c-9.544,0-17.651-5-21.068-14H188.591z M87,49h6.252c3.811,17.524,19.236,30,37.892,30
		h36.379c18.655,0,34.081-12.476,37.892-30H211v202H87V49z M149.333,16c10.456,0,19.242,7.259,21.601,17h-43.201
		C130.091,23.259,138.877,16,149.333,16z M239,279c0,1.103-0.564,2-1.667,2h-177C59.23,281,58,280.103,58,279V51
		c0-1.103,1.23-2,2.333-2H71v218h156V49h10.333c1.103,0,1.667,0.897,1.667,2V279z"/>
	<path style="fill:#FFBE00;" d="M131.143,63h36.379c9.544,0,17.651-5,21.068-14h-78.516C113.492,58,121.6,63,131.143,63z"/>
	<rect x="99" y="109" width="50" height="15"/>
	<polygon points="175.427,110.39 169.237,105.347 159.763,116.976 176.907,130.944 200.689,105.076 189.645,94.924 	"/>
	<rect x="99" y="157" width="50" height="15"/>
	<polygon points="175.427,158.39 169.237,153.347 159.763,164.976 176.907,178.944 200.689,153.076 189.645,142.924 	"/>
	<rect x="99" y="205" width="50" height="15"/>
	<polygon points="175.427,206.39 169.237,201.347 159.763,212.976 176.907,226.944 200.689,201.076 189.645,190.924 	"/>
</g>
</svg>
