<?xml version="1.0" encoding="iso-8859-1"?>
<!-- Generator: Adobe Illustrator 19.0.0, SVG Export Plug-In . SVG Version: 6.00 Build 0)  -->
<!-- License: CC0. Made by SVG Repo: https://www.svgrepo.com/svg/250456/user-people -->
<svg version="1.1" id="Layer_1" xmlns="http://www.w3.org/2000/svg" xmlns:xlink="http://www.w3.org/1999/xlink" x="0px" y="0px"
     viewBox="0 0 512 512" style="enable-background:new 0 0 512 512;" xml:space="preserve">
<rect y="395.592" style="fill:#22ACDD;" width="512" height="16.288"/>
    <g>
	<rect x="380.112" y="340.008" style="fill:#FF6600;" width="131.888" height="27.92"/>
        <rect x="183.168" y="340.008" style="fill:#FF6600;" width="131.888" height="27.92"/>
        <rect y="340.008" style="fill:#FF6600;" width="131.888" height="27.92"/>
</g>
    <circle cx="121.568" cy="144.68" r="44.56"/>
    <path d="M119.456,292.872L76.4,199.544c0,0-45.152,0.608-45.152,42.144s0,51.184,0,51.184S119.76,292.872,119.456,292.872z"/>
    <path d="M123.68,292.872l43.056-93.328c0,0,45.152,0.608,45.152,42.144s0,51.184,0,51.184S123.376,292.872,123.68,292.872z"/>
    <polygon style="fill:#22ACDD;" points="121.568,199.544 90.56,199.544 121.568,268.184 152.576,199.544 "/>
    <circle cx="390.432" cy="144.68" r="44.56"/>
    <path d="M388.32,292.872l-43.056-93.328c0,0-45.152,0.608-45.152,42.144s0,51.184,0,51.184S388.624,292.872,388.32,292.872z"/>
    <path d="M392.544,292.872l43.056-93.328c0,0,45.152,0.608,45.152,42.144s0,51.184,0,51.184S392.24,292.872,392.544,292.872z"/>
    <polygon style="fill:#22ACDD;" points="390.432,199.544 359.424,199.544 390.432,268.184 421.44,199.544 "/>
</svg>
