<?xml version="1.0" ?>

<!DOCTYPE svg  PUBLIC '-//W3C//DTD SVG 1.1//EN'  'http://www.w3.org/Graphics/SVG/1.1/DTD/svg11.dtd'>

<!-- License: CC Attribution. Made by Icon Lauk: https://dribbble.com/iconlauk -->
<svg width="800px" height="800px" viewBox="0 0 64 64" enable-background="new 0 0 64 64" version="1.1" xml:space="preserve" xmlns="http://www.w3.org/2000/svg" xmlns:xlink="http://www.w3.org/1999/xlink">

<g id="Home"/>

<g id="Camera"/>

<g id="Mail"/>

<g id="Print"/>

<g id="Save"/>

<g id="Folder"/>

<g id="Search"/>

<g id="User"/>

<g id="Pin"/>

<g id="Calendar"/>

<g id="Gallery"/>

<g id="time"/>

<g id="Pin_1_"/>

<g id="Setting"/>

<g id="Player"/>

<g id="Lock"/>

<g id="Trash_Can">

<g>

<path d="M56,14v6c0,2.2-1.8,4-4,4v30c0,4.4-3.6,8-8,8H20c-4.4,0-8-3.6-8-8V24c-2.2,0-4-1.8-4-4v-6c0-2.2,1.8-4,4-4    h10.2c0.9-4.6,5-8,9.8-8s8.9,3.4,9.8,8H52C54.2,10,56,11.8,56,14z" fill="#785548"/>

</g>

<g>

<g>

<path d="M24,51c-1.1,0-2-0.9-2-2V33c0-1.1,0.9-2,2-2s2,0.9,2,2v16C26,50.1,25.1,51,24,51z" fill="#FFC10A"/>

</g>

<g>

<path d="M40,51c-1.1,0-2-0.9-2-2V33c0-1.1,0.9-2,2-2s2,0.9,2,2v16C42,50.1,41.1,51,40,51z" fill="#FFC10A"/>

</g>

</g>

<g>

<path d="M56,14v6c0,2.2-1.8,4-4,4H12c-2.2,0-4-1.8-4-4v-6c0-2.2,1.8-4,4-4h40C54.2,10,56,11.8,56,14z" fill="#FFC10A"/>

</g>

</g>

<g id="Notification"/>

<g id="Record"/>

<g id="Shopping_Bag"/>

</svg>