<?xml version="1.0" encoding="iso-8859-1"?>
<!-- Generator: Adobe Illustrator 19.0.0, SVG Export Plug-In . SVG Version: 6.00 Build 0)  -->
<!-- License: CC0. Made by SVG Repo: https://www.svgrepo.com/svg/226437/user-remove -->
<svg version="1.1" id="Layer_1" xmlns="http://www.w3.org/2000/svg" xmlns:xlink="http://www.w3.org/1999/xlink" x="0px" y="0px"
     viewBox="0 0 512 512" style="enable-background:new 0 0 512 512;" xml:space="preserve">
<g>
	<path style="fill:#B3404A;" d="M344.583,512c-60.311,0-109.375-49.066-109.375-109.375c0-55.257,41.311-101.934,96.093-108.575
		c8.281-1.01,15.822,4.9,16.827,13.189c1.004,8.289-4.9,15.822-13.19,16.827c-39.619,4.803-69.496,38.577-69.496,78.559
		c0,43.637,35.501,79.14,79.14,79.14s79.14-35.501,79.14-79.14c0-16.942-5.272-33.094-15.248-46.711
		c-4.934-6.736-3.474-16.196,3.262-21.13c6.732-4.934,16.196-3.473,21.13,3.261c13.798,18.835,21.091,41.167,21.091,64.578
		C453.957,462.935,404.893,512,344.583,512z"/>
    <path style="fill:#B3404A;" d="M382.47,418.087h-75.774c-8.348,0-15.118-6.768-15.118-15.118s6.77-15.118,15.118-15.118h75.774
		c8.348,0,15.118,6.768,15.118,15.118S390.819,418.087,382.47,418.087z"/>
</g>
    <path style="fill:#F4B2B0;" d="M108.333,169.679c0,0,48.18-21.351,110.206-28.119c9.932-1.084,51.042-30.391,51.303-30.583
	c26.999-19.818,47.974,58.702,47.974,58.702c0.242-1.386,0.481-2.812,0.714-4.271c0.104-0.65,0.207-1.308,0.308-1.97
	c2.346-15.246,11.688-33.714,11.621-49.166c-0.044-10.077-0.872-18.873-2.842-24.655c-17.933-52.673-61.042-35.318-61.042-35.318
	s-30.069-40.385-52.913-39.147c-0.254-0.008-0.511-0.035-0.762-0.033v0.092c-2.2,0.212-4.33,0.813-6.352,1.902
	c-59.03,31.732-66.852,27.762-80.095,32.362C94.342,60.629,93.5,57.646,97.545,82.396
	C104.306,123.752,107.069,153.866,108.333,169.679z"/>
    <path style="fill:#B3404A;" d="M341.929,84.745c-14.309-42.026-43.25-48.301-59.23-48.301c-3.816,0-7.325,0.354-10.36,0.847
	c-11.48-13.588-34.78-37.285-57.639-37.285c-0.317,0-0.635,0.005-0.949,0.014c-0.321-0.014-0.661-0.023-0.984-0.018
	c-1.211,0.011-2.386,0.165-3.512,0.446c-3.482,0.571-6.791,1.695-9.866,3.349c-43.501,23.387-57.722,26.491-67.132,28.544
	c-3.365,0.733-6.842,1.494-10.762,2.854c-3.509,1.218-6.638,2.266-9.421,3.197c-13.727,4.594-22.013,7.367-27.334,15.452
	c-5.749,8.732-4.222,18.07-2.11,30.991c4.865,29.759,8.434,58.604,10.613,85.738v18.749c0,30.814,11.692,58.944,30.861,80.207
	c-39.927,19.511-66.06,62.153-66.06,111.866v110.946c0,8.35,6.77,15.118,15.118,15.118h139.993c8.348,0,15.118-6.768,15.118-15.118
	s-6.77-15.118-15.118-15.118H88.275v-95.828c0-43.911,24.819-79.214,62.357-89.793c18.217,11.175,39.625,17.632,62.518,17.632
	c66.12,0,119.912-53.793,119.912-119.912v-19.171c0.13-0.78,0.265-1.547,0.392-2.339c0.11-0.686,0.219-1.379,0.327-2.076
	c0.794-5.164,2.75-11.349,4.821-17.898c3.453-10.921,7.024-22.212,6.974-33.634C345.521,101.426,344.327,91.788,341.929,84.745z
	 M121.667,67.065c2.88-0.965,6.118-2.047,9.748-3.308c2.21-0.768,4.34-1.232,7.288-1.876c11.719-2.558,27.77-6.061,75.005-31.455
	c0.079-0.041,0.237-0.127,0.633-0.166c0.039-0.003,0.079-0.008,0.116-0.012c0.008,0,0.014,0,0.021,0l0.221-0.006
	c8.85,0,28.057,17.443,39.749,33.087c4.159,5.586,11.288,7.731,17.694,5.028c0.606-0.216,4.937-1.677,10.555-1.677
	c14.224,0,24.235,9.098,30.607,27.812c0.594,1.742,1.979,7.163,2.035,19.848c0.009,1.993-0.237,4.189-0.662,6.523
	c-10.61-18.953-22.457-28.21-36.009-28.21c-6.247,0-12.226,2.065-17.656,6.052c-16.347,11.716-38.66,25.937-44.726,27.894
	c-39.757,4.402-73.72,14.443-94.023,21.54c-0.259-0.608-0.568-1.187-0.903-1.751c-2.207-21.426-5.178-43.67-8.897-66.43
	c-0.479-2.936-1.081-6.612-1.359-9.187C113.696,69.732,117.727,68.383,121.667,67.065z M213.15,279
	c-49.448,0-89.677-40.228-89.677-89.677V179.9c16.321-6.171,53.14-18.557,96.706-23.311c14.694-1.604,53.819-29.922,58.551-33.383
	c1.899,1.306,7.683,6.464,15.316,24.253c4.602,10.723,7.736,21.122,8.782,24.761v17.101C302.828,238.77,262.599,279,213.15,279z"/>
</svg>
