<?xml version="1.0" encoding="iso-8859-1"?>
<!-- Generator: Adobe Illustrator 19.0.0, SVG Export Plug-In . SVG Version: 6.00 Build 0)  -->
<!-- License: CC0. Made by SVG Repo: https://www.svgrepo.com/svg/255953/user-edit -->
<svg version="1.1" id="Layer_1" xmlns="http://www.w3.org/2000/svg" xmlns:xlink="http://www.w3.org/1999/xlink" x="0px" y="0px"
     viewBox="0 0 512 512" style="enable-background:new 0 0 512 512;" xml:space="preserve">
<path style="fill:#FFC1A6;" d="M196.085,8.17v232.034c58.063,0,105.123-47.06,105.123-105.123v-21.787
	C301.208,55.24,254.148,8.17,196.085,8.17z"/>
    <path style="fill:#FFDBCC;" d="M196.085,8.17c40.012,0,72.443,47.071,72.443,105.123v21.787c0,58.063-32.43,105.123-72.443,105.123
	c-58.063,0-105.123-47.06-105.123-105.123v-21.787C90.961,55.242,138.022,8.17,196.085,8.17z"/>
    <path style="fill:#FEDC3D;" d="M197.947,272.351l142.478,177.01h32.681C373.106,352.212,294.857,273.352,197.947,272.351z"/>
    <path style="fill:#FFE777;" d="M197.947,272.351c78.859,1.231,142.478,80.003,142.478,177.01H19.063
	c0-97.77,79.251-177.021,177.021-177.021C196.705,272.34,197.326,272.34,197.947,272.351z"/>
    <path style="fill:#D5F6F5;" d="M217.872,273.668l-21.787,61.68c30.077,0,54.457-24.369,54.468-54.457
	C240.051,277.492,229.125,275.053,217.872,273.668z"/>
    <path style="fill:#FFFFFF;" d="M217.872,273.669v7.212c0,30.088-9.75,54.468-21.787,54.468c-30.077,0-54.468-24.38-54.468-54.468
	c17.157-5.545,35.459-8.541,54.468-8.541C203.46,272.34,210.726,272.787,217.872,273.669z"/>
    <path style="fill:#ABECEC;" d="M383.999,285.957v196.085l54.469,7.21c32.56-18.835,54.467-54.038,54.467-94.359
	C492.936,334.727,444.165,285.957,383.999,285.957z"/>
    <path style="fill:#D5F6F5;" d="M383.999,285.957c42.115,0,76.255,48.771,76.255,108.936c0,29.679-8.307,56.584-21.781,76.231
	L329.53,489.253c-32.56-18.836-54.467-54.039-54.467-94.359C275.063,334.728,323.834,285.957,383.999,285.957z"/>
    <path style="fill:#FEDC3D;" d="M382.122,503.806c0.625,0.011,1.25,0.024,1.877,0.024c19.843,0,38.446-5.307,54.469-14.577
	l-0.001-71.484l-65.362-10.894L382.122,503.806z"/>
    <path style="fill:#FFF1B1;" d="M329.531,417.769l-0.002,71.483c16.023,9.269,34.628,14.577,54.47,14.577v-96.953L329.531,417.769z"
    />
    <polygon style="fill:#FFC1A6;" points="411.233,368.749 438.468,417.77 405.787,417.77 373.106,357.855 "/>
    <polygon style="fill:#FFDBCC;" points="394.893,357.855 405.787,417.77 329.531,417.77 356.765,368.749 "/>
    <polygon style="fill:#737373;" points="356.765,368.748 411.233,368.748 383.999,319.728 "/>
    <path d="M236.391,131.469c4.512,0,8.17-3.658,8.17-8.17v-16.34c0-4.512-3.658-8.17-8.17-8.17c-4.512,0-8.17,3.658-8.17,8.17v16.34
	C228.221,127.81,231.879,131.469,236.391,131.469z"/>
    <path d="M155.778,131.469c4.512,0,8.17-3.658,8.17-8.17v-16.34c0-4.512-3.658-8.17-8.17-8.17c-4.512,0-8.17,3.658-8.17,8.17v16.34
	C147.608,127.81,151.266,131.469,155.778,131.469z"/>
    <path d="M196.085,182.269c11.414,0,21.385-7.729,24.25-18.796c1.131-4.368-1.495-8.827-5.862-9.957
	c-4.369-1.129-8.827,1.495-9.957,5.863c-0.998,3.856-4.465,6.549-8.431,6.549c-3.965,0-7.433-2.693-8.431-6.549
	c-1.132-4.369-5.588-6.996-9.957-5.863c-4.368,1.131-6.993,5.588-5.862,9.957C174.698,174.54,184.67,182.269,196.085,182.269z"/>
    <path d="M253.281,441.19H27.428c3.248-67.847,46.734-125.316,107.053-149.036c5.326,29.175,30.913,51.369,61.603,51.369
	c30.693,0,56.282-22.197,61.604-51.376c7.443,2.912,14.69,6.337,21.661,10.296c3.923,2.229,8.911,0.854,11.14-3.069
	c2.229-3.923,0.855-8.911-3.069-11.14c-27.716-15.743-59.299-24.064-91.335-24.064c-102.115,0-185.191,83.077-185.191,185.191
	c0,4.512,3.658,8.17,8.17,8.17h234.218c4.512,0,8.17-3.658,8.17-8.17C261.453,444.85,257.794,441.19,253.281,441.19z
	 M241.982,286.876c-2.949,22.707-22.401,40.306-45.897,40.306c-23.503,0-42.958-17.608-45.899-40.324
	c14.601-4.13,29.994-6.349,45.899-6.349C211.662,280.51,227.114,282.687,241.982,286.876z"/>
    <path d="M196.085,248.374c62.471,0,113.294-50.823,113.294-113.294v-21.787C309.378,50.823,258.554,0,196.085,0
	S82.791,50.823,82.791,113.294v21.787C82.791,197.551,133.614,248.374,196.085,248.374z M99.131,113.294
	c0-53.46,43.493-96.953,96.953-96.953s96.953,43.493,96.953,96.953v21.787c0,53.46-43.493,96.953-96.953,96.953
	s-96.953-43.493-96.953-96.953V113.294z"/>
    <path d="M383.999,277.787c-64.573,0-117.106,52.533-117.106,117.106S319.426,512,383.999,512s117.106-52.534,117.106-117.106
	S448.572,277.787,383.999,277.787z M361.573,376.919h44.853l18.156,32.681h-81.165L361.573,376.919z M370.65,360.579l13.349-24.028
	l13.348,24.028H370.65z M392.17,425.94h38.128l0.001,58.433c-11.584,6.019-24.476,9.852-38.129,10.954V425.94z M337.702,425.94
	h38.128v69.387c-13.653-1.101-26.546-4.935-38.13-10.954L337.702,425.94z M446.639,473.764l-0.001-55.994
	c0-1.389-0.354-2.754-1.028-3.967l-27.183-48.929c-0.009-0.016-0.017-0.032-0.026-0.048l-27.259-49.067
	c-1.441-2.594-4.176-4.203-7.142-4.203c-2.966,0-5.701,1.609-7.142,4.203l-27.259,49.067c-0.009,0.016-0.017,0.032-0.026,0.048
	l-27.183,48.929c-0.674,1.214-1.028,2.579-1.028,3.967l-0.002,55.994c-23.215-18.477-38.125-46.963-38.125-78.871
	c0-55.563,45.203-100.766,100.766-100.766s100.766,45.203,100.766,100.766C484.765,426.801,469.854,455.289,446.639,473.764z"/>
</svg>
